<svg enable-background="new 0 0 500 500" viewBox="0 0 500 500" xml:space="preserve">
    <g transform="matrix(0.53 0 0 0.53 97.39 365.54)" id="6dc74c4e-31d6-4201-8402-907957ea23d7">
        <circle cx="0" cy="0" r="35" />
    </g>
    <g transform="matrix(3.79 0 0 0.2 250 366.1)" id="0645b110-66ad-416c-956f-0d2643c5cc7d">
        <rect x="-37.165" y="-37.165" rx="0" ry="0" width="74.33" height="74.33" />
    </g>
    <g transform="matrix(0.53 0 0 0.53 250 102.94)" id="6dc74c4e-31d6-4201-8402-907957ea23d7">
        <circle cx="0" cy="0" r="35" />
    </g>
    <g transform="matrix(1.91 -3.28 0.17 0.1 174.19 231.64)" id="0645b110-66ad-416c-956f-0d2643c5cc7d">
        <rect x="-37.165" y="-37.165" rx="0" ry="0" width="74.33" height="74.33" />
    </g>
    <g transform="matrix(1.94 3.25 -0.17 0.1 326.09 229.47)" id="0645b110-66ad-416c-956f-0d2643c5cc7d">
        <rect x="-37.165" y="-37.165" rx="0" ry="0" width="74.33" height="74.33" />
    </g>
    <g transform="matrix(0.53 0 0 0.53 403.72 364.69)" id="6dc74c4e-31d6-4201-8402-907957ea23d7">
        <circle cx="0" cy="0" r="35" />
    </g>
</svg>